<?xml version="1.0" encoding="utf-8"?>
<!-- Generator: Adobe Illustrator 23.0.6, SVG Export Plug-In . SVG Version: 6.00 Build 0)  -->
<svg version="1.1" id="Layer_1" xmlns="http://www.w3.org/2000/svg" xmlns:xlink="http://www.w3.org/1999/xlink" x="0px" y="0px"
	 viewBox="0 0 192.1 192.1" style="enable-background:new 0 0 192.1 192.1;" xml:space="preserve">
<style type="text/css">
	.st0{opacity:0.1;fill:#272724;enable-background:new    ;}
	.st1{fill:url(#XMLID_2_);}
	.st2{fill:url(#XMLID_3_);}
	.st3{opacity:0.7;fill:url(#SVGID_1_);enable-background:new    ;}
	.st4{opacity:0.2;fill:url(#SVGID_2_);enable-background:new    ;}
	.st5{opacity:0.5;fill:url(#SVGID_3_);enable-background:new    ;}
	.st6{opacity:0.2;fill:url(#SVGID_4_);enable-background:new    ;}
	.st7{opacity:0.5;fill:url(#SVGID_5_);enable-background:new    ;}
	.st8{opacity:0.2;fill:url(#SVGID_6_);enable-background:new    ;}
	.st9{opacity:0.5;fill:url(#SVGID_7_);enable-background:new    ;}
	.st10{opacity:0.2;fill:url(#SVGID_8_);enable-background:new    ;}
	.st11{enable-background:new    ;}
	.st12{fill:url(#SVGID_9_);}
	.st13{fill:#FDC805;}
	.st14{fill:url(#SVGID_10_);}
	.st15{fill:url(#SVGID_11_);}
	.st16{fill:url(#SVGID_12_);}
	.st17{fill:url(#SVGID_13_);}
	.st18{fill:url(#SVGID_14_);}
	.st19{fill:url(#SVGID_15_);}
	.st20{fill:url(#SVGID_16_);}
	.st21{opacity:0.5;fill:#5CFCF1;enable-background:new    ;}
	.st22{opacity:0.2;fill:#5CFCF1;enable-background:new    ;}
	.st23{opacity:0.7;fill:#5CFCF1;enable-background:new    ;}
	.st24{fill:#42E6DE;}
	.st25{opacity:0.8;fill:#42E6DE;enable-background:new    ;}
	.st26{opacity:0.6;fill:#42E6DE;enable-background:new    ;}
	.st27{opacity:0.4;fill:#42E6DE;enable-background:new    ;}
	.st28{opacity:0.2;fill:#42E6DE;enable-background:new    ;}
	.st29{opacity:0.1;fill:#42E6DE;enable-background:new    ;}
</style>
<g>
	<g id="_x31_8_14_">
		<g id="_x36__15_">
			<g id="XMLID_323_">
				<path id="XMLID_326_" class="st0" d="M80.2,188.1L6.8,145.2c-10-5.9-8.8-16.1,2.9-22.8l62.1-36C83.4,79.7,101,79,111,84.8
					l73.4,42.9c10,5.9,8.8,16.1-2.9,22.8l-62.1,36C107.8,193.3,90.3,194,80.2,188.1z"/>
				
					<linearGradient id="XMLID_2_" gradientUnits="userSpaceOnUse" x1="0.8601" y1="652.2685" x2="192.0623" y2="652.2685" gradientTransform="matrix(1 0 0 1 0 -520)">
					<stop  offset="1.923080e-03" style="stop-color:#23DBEA"/>
					<stop  offset="1" style="stop-color:#0C5FCD"/>
				</linearGradient>
				<path id="XMLID_325_" class="st1" d="M192.1,133.3l-0.1-11.6l-12.8-1.7l-67.3-39.4c-10-5.9-27.6-5.2-39.2,1.6l-62.1,36
					c-0.5,0.3-1,0.6-1.5,0.9l-8.2,1.6v10.6l0,0c0.1,3.6,2.3,7.1,6.8,9.7l73.4,42.9c10,5.9,27.6,5.2,39.2-1.6l62.1-36
					C189,142.7,192.2,137.9,192.1,133.3L192.1,133.3z"/>
				
					<linearGradient id="XMLID_3_" gradientUnits="userSpaceOnUse" x1="96.5601" y1="608.9522" x2="96.5601" y2="665.7646" gradientTransform="matrix(1 0 0 1 0 -520)">
					<stop  offset="0" style="stop-color:#DFE0E1"/>
					<stop  offset="1" style="stop-color:#FFFFFF"/>
				</linearGradient>
				<path id="XMLID_324_" class="st2" d="M81.2,174.6L7.8,131.7c-10-5.9-8.8-16.1,2.9-22.8l62.1-36c11.6-6.7,29.2-7.4,39.2-1.6
					l73.4,42.9c10,5.9,8.8,16.1-2.9,22.8l-62.1,36C108.8,179.7,91.2,180.4,81.2,174.6z"/>
			</g>
		</g>
	</g>
	<g>
		
			<linearGradient id="SVGID_1_" gradientUnits="userSpaceOnUse" x1="178.5101" y1="650.5573" x2="178.5101" y2="622.4473" gradientTransform="matrix(1 0 0 1 0 -520)">
			<stop  offset="1.923080e-03" style="stop-color:#23DBEA"/>
			<stop  offset="1" style="stop-color:#0C5FCD"/>
		</linearGradient>
		<polygon class="st3" points="172.5,107.1 184.6,114.1 184.6,124.5 172.5,117.5 		"/>
		
			<linearGradient id="SVGID_2_" gradientUnits="userSpaceOnUse" x1="166.41" y1="649.2613" x2="166.41" y2="607.9004" gradientTransform="matrix(1 0 0 1 0 -520)">
			<stop  offset="1.923080e-03" style="stop-color:#23DBEA"/>
			<stop  offset="1" style="stop-color:#0C5FCD"/>
		</linearGradient>
		<polygon class="st4" points="160.4,86.2 172.5,93.2 172.5,117.5 160.4,110.5 		"/>
		
			<linearGradient id="SVGID_3_" gradientUnits="userSpaceOnUse" x1="154.3101" y1="640.4" x2="154.3101" y2="612.4067" gradientTransform="matrix(1 0 0 1 0 -520)">
			<stop  offset="1.923080e-03" style="stop-color:#23DBEA"/>
			<stop  offset="1" style="stop-color:#0C5FCD"/>
		</linearGradient>
		<polygon class="st5" points="148.3,93.2 160.4,100.2 160.4,110.5 148.3,103.5 		"/>
		
			<linearGradient id="SVGID_4_" gradientUnits="userSpaceOnUse" x1="142.2101" y1="647.7205" x2="142.2101" y2="590.3808" gradientTransform="matrix(1 0 0 1 0 -520)">
			<stop  offset="1.923080e-03" style="stop-color:#23DBEA"/>
			<stop  offset="1" style="stop-color:#0C5FCD"/>
		</linearGradient>
		<polygon class="st6" points="136.2,44.3 148.3,51.3 148.3,103.5 136.2,96.6 		"/>
		
			<linearGradient id="SVGID_5_" gradientUnits="userSpaceOnUse" x1="130.1101" y1="641.4247" x2="130.1101" y2="590.8183" gradientTransform="matrix(1 0 0 1 0 -520)">
			<stop  offset="1.923080e-03" style="stop-color:#23DBEA"/>
			<stop  offset="1" style="stop-color:#0C5FCD"/>
		</linearGradient>
		<polygon class="st7" points="124.1,51.3 136.2,58.2 136.2,96.6 124.1,89.6 		"/>
		
			<linearGradient id="SVGID_6_" gradientUnits="userSpaceOnUse" x1="118.0101" y1="632.7938" x2="118.0101" y2="591.3549" gradientTransform="matrix(1 0 0 1 0 -520)">
			<stop  offset="1.923080e-03" style="stop-color:#23DBEA"/>
			<stop  offset="1" style="stop-color:#0C5FCD"/>
		</linearGradient>
		<polygon class="st8" points="112,58.2 124.1,65.2 124.1,89.6 112,82.6 		"/>
		
			<linearGradient id="SVGID_7_" gradientUnits="userSpaceOnUse" x1="105.91" y1="631.608" x2="105.91" y2="585.472" gradientTransform="matrix(1 0 0 1 0 -520)">
			<stop  offset="1.923080e-03" style="stop-color:#23DBEA"/>
			<stop  offset="1" style="stop-color:#0C5FCD"/>
		</linearGradient>
		<polygon class="st9" points="99.9,34.9 112,41.9 112,82.6 99.9,75.6 		"/>
		
			<linearGradient id="SVGID_8_" gradientUnits="userSpaceOnUse" x1="93.8101" y1="635.8878" x2="93.8101" y2="578.1486" gradientTransform="matrix(1 0 0 1 0 -520)">
			<stop  offset="1.923080e-03" style="stop-color:#23DBEA"/>
			<stop  offset="1" style="stop-color:#0C5FCD"/>
		</linearGradient>
		<polygon class="st10" points="87.8,0 99.9,7 99.9,75.6 87.8,68.6 		"/>
	</g>
	<g>
		<g>
			<g class="st11">
				<g>
					
						<radialGradient id="SVGID_9_" cx="55.1044" cy="625.4685" r="5.2801" gradientTransform="matrix(1 0 0 1 0 -520)" gradientUnits="userSpaceOnUse">
						<stop  offset="0" style="stop-color:#00FCFF"/>
						<stop  offset="0.1099" style="stop-color:#03F6FF"/>
						<stop  offset="0.2577" style="stop-color:#0CE5FF"/>
						<stop  offset="0.4271" style="stop-color:#1AC9FF"/>
						<stop  offset="0.6127" style="stop-color:#2DA1FF"/>
						<stop  offset="0.8088" style="stop-color:#4670FF"/>
						<stop  offset="1" style="stop-color:#6238FF"/>
					</radialGradient>
					<path class="st12" d="M55.5,108.5c-0.5,1.5-0.7,2.9-0.7,4.4v-10.5c0-1.5,0.2-3,0.7-4.4c0,1.7,0,3.5,0,5.2c0,0.4,0,1,0,1.4
						c0,0.7,0,1.3,0,2c0,0.4,0,0.9,0,1.3C55.5,108.1,55.5,108.3,55.5,108.5z"/>
				</g>
				<g>
					<path class="st13" d="M136.7,102.6v10.5c0,6-4,12.1-11.9,16.7c-16,9.3-41.9,9.3-57.9,0c-8.1-4.7-12.1-10.8-12.1-16.9v-10.5
						c0,6.1,4,12.2,12.1,16.9c16,9.3,42,9.3,57.9,0C132.8,114.7,136.7,108.7,136.7,102.6z"/>
				</g>
				<g>
					
						<radialGradient id="SVGID_10_" cx="136.66" cy="627.8477" r="3.7523" gradientTransform="matrix(1 0 0 1 0 -520)" gradientUnits="userSpaceOnUse">
						<stop  offset="0" style="stop-color:#00FCFF"/>
						<stop  offset="0.1099" style="stop-color:#03F6FF"/>
						<stop  offset="0.2577" style="stop-color:#0CE5FF"/>
						<stop  offset="0.4271" style="stop-color:#1AC9FF"/>
						<stop  offset="0.6127" style="stop-color:#2DA1FF"/>
						<stop  offset="0.8088" style="stop-color:#4670FF"/>
						<stop  offset="1" style="stop-color:#6238FF"/>
					</radialGradient>
					<path class="st14" d="M136.7,113.1V113c0-3.5,0-7,0-10.5v0.1C136.7,105.8,136.7,110,136.7,113.1z"/>
				</g>
				<g>
					
						<linearGradient id="SVGID_11_" gradientUnits="userSpaceOnUse" x1="43.5601" y1="642.8435" x2="147.86" y2="642.8435" gradientTransform="matrix(1 0 0 1 0 -520)">
						<stop  offset="2.438506e-02" style="stop-color:#00FCFF"/>
						<stop  offset="0.1316" style="stop-color:#03F6FF"/>
						<stop  offset="0.2758" style="stop-color:#0CE5FF"/>
						<stop  offset="0.4411" style="stop-color:#1AC9FF"/>
						<stop  offset="0.6221" style="stop-color:#2DA1FF"/>
						<stop  offset="0.8135" style="stop-color:#4670FF"/>
						<stop  offset="1" style="stop-color:#6238FF"/>
					</linearGradient>
					<path class="st15" d="M147.9,102.7v10.5c0,7.7-5.1,15.4-15.2,21.2c-20.3,11.8-53.3,11.8-73.7,0c-10.3-5.9-15.4-13.7-15.4-21.5
						v-10.5c0,7.8,5.1,15.6,15.4,21.5c20.4,11.8,53.4,11.8,73.7,0C142.9,118,147.9,110.4,147.9,102.7z"/>
				</g>
				<g>
					
						<radialGradient id="SVGID_12_" cx="95.7101" cy="622.5685" r="42.6404" gradientTransform="matrix(1 0 0 1 0 -520)" gradientUnits="userSpaceOnUse">
						<stop  offset="0" style="stop-color:#00FCFF"/>
						<stop  offset="0.1099" style="stop-color:#03F6FF"/>
						<stop  offset="0.2577" style="stop-color:#0CE5FF"/>
						<stop  offset="0.4271" style="stop-color:#1AC9FF"/>
						<stop  offset="0.6127" style="stop-color:#2DA1FF"/>
						<stop  offset="0.8088" style="stop-color:#4670FF"/>
						<stop  offset="1" style="stop-color:#6238FF"/>
					</radialGradient>
					<path class="st16" d="M132.5,81.2c20.4,11.8,20.5,30.9,0.2,42.7s-53.3,11.8-73.7,0S38.5,93,58.8,81.2S112.1,69.4,132.5,81.2z"
						/>
				</g>
			</g>
		</g>
		<g>
			<g class="st11">
				<g>
					
						<radialGradient id="SVGID_13_" cx="55.6434" cy="615.9298" r="5.2797" gradientTransform="matrix(1 0 0 1.0134 0 -520.8947)" gradientUnits="userSpaceOnUse">
						<stop  offset="0" style="stop-color:#00FCFF"/>
						<stop  offset="0.1099" style="stop-color:#03F6FF"/>
						<stop  offset="0.2577" style="stop-color:#0CE5FF"/>
						<stop  offset="0.4271" style="stop-color:#1AC9FF"/>
						<stop  offset="0.6127" style="stop-color:#2DA1FF"/>
						<stop  offset="0.8088" style="stop-color:#4670FF"/>
						<stop  offset="1" style="stop-color:#6238FF"/>
					</radialGradient>
					<path class="st17" d="M56,106.4c-0.5,1.5-0.7,3-0.7,4.5v-10.6c0-1.5,0.2-3,0.7-4.5c0,1.8,0,3.5,0,5.3c0,0.4,0,1,0,1.4
						c0,0.7,0,1.4,0,2c0,0.4,0,0.9,0,1.3C56,105.9,56.1,106.2,56,106.4z"/>
				</g>
				<g>
					
						<radialGradient id="SVGID_14_" cx="137.2601" cy="618.3095" r="3.7523" gradientTransform="matrix(1 0 0 1.0134 0 -520.8947)" gradientUnits="userSpaceOnUse">
						<stop  offset="0" style="stop-color:#00FCFF"/>
						<stop  offset="0.1099" style="stop-color:#03F6FF"/>
						<stop  offset="0.2577" style="stop-color:#0CE5FF"/>
						<stop  offset="0.4271" style="stop-color:#1AC9FF"/>
						<stop  offset="0.6127" style="stop-color:#2DA1FF"/>
						<stop  offset="0.8088" style="stop-color:#4670FF"/>
						<stop  offset="1" style="stop-color:#6238FF"/>
					</radialGradient>
					<path class="st18" d="M137.3,111.1V111c0-3.5,0-7.1,0-10.6v0.1C137.3,103.6,137.3,107.9,137.3,111.1z"/>
				</g>
				<g>
					<g>
						
							<radialGradient id="SVGID_15_" cx="96.6374" cy="611.581" r="37.3025" gradientTransform="matrix(1.0221 0 0 1.0134 1.7129 -520.8947)" gradientUnits="userSpaceOnUse">
							<stop  offset="0" style="stop-color:#00FCFF"/>
							<stop  offset="0.1099" style="stop-color:#03F6FF"/>
							<stop  offset="0.2577" style="stop-color:#0CE5FF"/>
							<stop  offset="0.4271" style="stop-color:#1AC9FF"/>
							<stop  offset="0.6127" style="stop-color:#2DA1FF"/>
							<stop  offset="0.8088" style="stop-color:#4670FF"/>
							<stop  offset="1" style="stop-color:#6238FF"/>
						</radialGradient>
						<path class="st19" d="M132.9,80.1c20.4,11.7,20.5,30.6,0.2,42.3s-53.3,11.7-73.7,0s-20.5-30.6-0.2-42.3
							C79.5,68.5,112.5,68.5,132.9,80.1z"/>
					</g>
					<g>
						
							<radialGradient id="SVGID_16_" cx="102.8784" cy="584.958" r="71.1932" gradientTransform="matrix(1.0342 0 0 1.0134 1.5239 -520.8947)" gradientUnits="userSpaceOnUse">
							<stop  offset="0" style="stop-color:#00FCFF"/>
							<stop  offset="0.114" style="stop-color:#00F6FE"/>
							<stop  offset="0.2674" style="stop-color:#00E5FA"/>
							<stop  offset="0.4433" style="stop-color:#00C9F5"/>
							<stop  offset="0.6357" style="stop-color:#00A1ED"/>
							<stop  offset="0.8394" style="stop-color:#0070E3"/>
							<stop  offset="0.9938" style="stop-color:#0045DB"/>
						</radialGradient>
						<path class="st20" d="M131.3,80.9c19.3,10.9,19.4,28.6,0.2,39.4c-19.1,10.9-50.2,10.9-69.5,0s-19.4-28.6-0.2-39.4
							C80.9,70,112,70,131.3,80.9z"/>
					</g>
				</g>
			</g>
		</g>
	</g>
	<g>
		<polygon class="st21" points="99.3,156 106.1,159.9 106.1,175.5 99.3,171.6 		"/>
		<polygon class="st22" points="92.6,159.9 99.3,163.8 99.3,171.6 92.6,167.7 		"/>
		<polygon class="st23" points="85.8,132.7 92.6,136.6 92.6,167.7 85.8,163.8 		"/>
		<polygon class="st22" points="79.1,121 85.8,124.9 85.8,163.8 79.1,159.9 		"/>
		<polygon class="st21" points="72.3,124.9 79.1,128.8 79.1,159.9 72.3,156 		"/>
		<polygon class="st22" points="65.6,97.6 72.3,101.5 72.3,156 65.6,152.1 		"/>
		<polygon class="st21" points="58.9,101.5 65.6,105.4 65.6,152.1 58.9,148.3 		"/>
		<polygon class="st22" points="52.1,105.4 58.9,109.3 58.9,148.3 52.1,144.4 		"/>
		<polygon class="st21" points="45.4,85.9 52.1,89.8 52.1,144.4 45.4,140.5 		"/>
		<polygon class="st22" points="38.6,66.5 45.4,70.4 45.4,140.5 38.6,136.6 		"/>
		<polygon class="st21" points="31.9,70.4 38.6,74.3 38.6,136.6 31.9,132.7 		"/>
		<polygon class="st22" points="25.1,50.9 31.9,54.8 31.9,132.7 25.1,128.8 		"/>
		<polygon class="st21" points="18.4,47 25.1,50.9 25.1,128.8 18.4,124.9 		"/>
		<polygon class="st22" points="11.6,27.5 18.4,31.4 18.4,124.9 11.6,121 		"/>
	</g>
	<g>
		<path class="st24" d="M97.8,71.6c-2.9,0-5.7-0.6-7.9-1.9c-2.2-1.3-3.4-3-3.4-4.8s1.2-3.6,3.4-4.8c4.4-2.5,11.5-2.5,15.9,0
			c2.2,1.3,3.4,3,3.4,4.8s-1.2,3.6-3.4,4.8l0,0C103.5,71,100.6,71.6,97.8,71.6z M97.8,59c-2.7,0-5.4,0.6-7.5,1.8
			c-1.9,1.1-3,2.6-3,4.1s1.1,3,3,4.1c4.1,2.4,10.9,2.4,15,0l0,0c1.9-1.1,3-2.6,3-4.1s-1.1-3-3-4.1C103.2,59.6,100.5,59,97.8,59z"/>
		
			<image style="overflow:visible;enable-background:new    ;" width="31" height="39" xlink:href="../illustrations/40AF14BB.png"  transform="matrix(1 0 0 1 54.2601 49.9185)">
		</image>
		<path class="st24" d="M102.5,67.6c-2.6,1.5-6.8,1.5-9.4,0s-2.6-3.9,0-5.4s6.8-1.5,9.4,0C105.1,63.7,105.1,66.1,102.5,67.6z"/>
		<polygon class="st24" points="125.2,51.8 120.5,49.1 128.4,44.5 133.1,47.2 		"/>
		<polygon class="st25" points="116.8,47.5 110.9,45.8 116,40.1 121.9,41.8 		"/>
		<polygon class="st26" points="106.6,45 100.1,44.4 101.8,38 108.3,38.6 		"/>
		<polygon class="st27" points="95.5,44.4 89,45 87.2,38.6 93.7,38 		"/>
		<polygon class="st28" points="84.6,45.8 78.7,47.5 73.7,41.8 79.5,40.1 		"/>
		<polygon class="st29" points="75,49.1 70.4,51.8 62.4,47.2 67.1,44.5 		"/>
		<polygon class="st28" points="109.6,59 108,58.1 119.8,51.2 121.5,52.2 		"/>
		<polygon class="st27" points="105.9,57.2 103.8,56.6 111.4,48 113.5,48.6 		"/>
		<polygon class="st26" points="101.4,56.1 99.1,55.9 101.7,46.4 104,46.6 		"/>
		<polygon class="st25" points="96.5,55.9 94.2,56.1 91.6,46.6 93.9,46.4 		"/>
		<polygon class="st24" points="91.7,56.6 89.7,57.2 82.1,48.6 84.1,48 		"/>
		<polygon class="st24" points="87.5,58.1 85.9,59 74.1,52.2 75.7,51.2 		"/>
		<polygon class="st24" points="84.4,60.2 83.3,61.4 68.4,57 69.5,55.8 		"/>
		<polygon class="st24" points="82.5,62.8 82.2,64.2 65.6,62.7 66,61.3 		"/>
		<polygon class="st24" points="82.2,65.7 82.5,67 66,68.5 65.6,67.2 		"/>
		<polygon class="st24" points="83.3,68.4 84.4,69.6 69.5,74 68.4,72.8 		"/>
		<polygon class="st24" points="85.9,70.8 87.5,71.8 75.7,78.6 74.1,77.6 		"/>
		<g>
			<path class="st26" d="M144.2,42.7c17.4,12.1,18.4,29.4,2.9,42.1l6.2,5.8c21.3-15.3,20.8-37.4-1.4-52.4L144.2,42.7z"/>
			<path class="st28" d="M107.2,99.3c-18.4,1.7-37.9-1.6-52-9.8c-3.3-1.9-6.2-4-8.6-6.2L36,85.4c3.1,3.1,6.9,6,11.4,8.6
				c17.9,10.3,43,14,66,11L107.2,99.3z"/>
			<path class="st24" d="M27.2,70.8l10.6-2.1c-1.9-10.1,3.9-20.6,17.3-28.3c22.2-12.8,57.3-13.5,81-2.2l7.8-4.5
				c-28-13.8-70.1-13.1-96.6,2.2C30.9,45.3,24.2,58.4,27.2,70.8z"/>
		</g>
		<g>
			<polygon class="st24" points="91.3,87.9 87.1,85.5 140.4,54.7 144.6,57.1 			"/>
			<polygon class="st25" points="97.2,91.3 93,88.9 116.2,75.6 120.3,77.9 			"/>
			<polygon class="st26" points="103.5,95 99.3,92.6 136.2,71.3 140.4,73.7 			"/>
			<polygon class="st28" points="109.7,98.6 105.5,96.2 134.3,79.6 138.4,82 			"/>
		</g>
	</g>
</g>
</svg>
