<?xml version="1.0" encoding="utf-8"?>
<!-- Generator: Adobe Illustrator 16.0.0, SVG Export Plug-In . SVG Version: 6.00 Build 0)  -->
<!DOCTYPE svg PUBLIC "-//W3C//DTD SVG 1.1//EN" "http://www.w3.org/Graphics/SVG/1.1/DTD/svg11.dtd">
<svg version="1.1" id="Layer_1" xmlns="http://www.w3.org/2000/svg" xmlns:xlink="http://www.w3.org/1999/xlink" x="0px" y="0px"
	 width="821.649px" height="119.984px" viewBox="0 196 821.649 119.984" enable-background="new 0 196 821.649 119.984"
	 xml:space="preserve">
<title>Dash Logo</title>
<g>
	<path d="M96.777,196h-53.8l-4.459,24.921l48.548,0.059c23.91,0,30.979,8.68,30.778,23.09c-0.104,7.382-3.304,19.861-4.687,23.907
		c-3.684,10.784-11.252,23.089-39.63,23.041l-47.191-0.02l-4.468,24.931h53.679c18.934,0,26.993-2.202,35.513-6.144
		c18.904-8.729,30.154-27.386,34.658-51.735C152.43,221.792,144.072,196,96.777,196z"/>
	<path d="M263.161,315.986l3.792-21.668h45.959c3.61,0,6.14-2.17,6.68-5.779c0.723-3.612-1.083-5.778-4.692-5.778h-21.975
		c-17.337,0-25.644-10.111-22.572-27.449c3.069-17.337,14.988-27.444,32.322-27.444h49.929l-3.97,21.669h-44.005
		c-3.612,0-6.14,2.166-6.684,5.775c-0.722,3.614,1.083,5.78,4.696,5.78h21.976c17.334,0,25.639,10.113,22.573,27.447
		c-3.067,17.333-14.811,27.447-32.145,27.447H263.161z"/>
	<path d="M193.169,315.984c-28.534,0-41.357-15.532-36.3-44.066c4.878-28.531,23.298-44.063,51.829-44.063h50.567l-15.533,88.132
		L193.169,315.984z M226.036,249.527h-13.009c-15.529,0-24.716,6.862-27.412,22.391c-2.888,15.531,2.891,22.393,18.42,22.393h14.231
		L226.036,249.527z"/>
	<path d="M415.27,315.984l9.031-51.29c1.626-10.114-2.479-14.445-12.593-14.445h-14.381l-11.558,65.735h-29.269L377.662,196h29.27
		l-5.633,31.871h21.919c25.643,0,34.853,11.197,30.339,36.839l-9.03,51.29L415.27,315.984z"/>
	<path d="M19.763,243.445c-14.091,0-16.111,9.184-17.444,14.732C0.572,265.445,0,268.389,0,268.389h55.084
		c14.091,0,16.111-9.184,17.444-14.732c1.747-7.269,2.319-10.211,2.319-10.211H19.763z"/>
</g>
<g>
	<path d="M583.029,258.759L551.2,315.795h-13.138l-7.69-39.306l-22.322,39.306h-12.925l-10.467-57.036h12.176l7.264,41.977
		l23.818-41.977h11.429l7.583,41.977l23.498-41.977H583.029z"/>
	<path d="M645.944,258.759l-11.321,57.036h-12.711l1.176-5.874c-4.807,4.272-11.108,6.622-18.585,6.622
		c-13.992,0-25.101-9.292-25.101-25.101c0-19.438,13.886-33.324,32.149-33.324c8.865,0,15.595,2.991,19.439,9.079l1.603-8.438
		H645.944z M627.573,283.753c0-8.865-5.447-14.313-15.06-14.313c-11.322,0-19.653,8.758-19.653,21.361
		c0,8.865,5.447,14.313,15.061,14.313C619.242,305.114,627.573,296.356,627.573,283.753z"/>
	<path d="M667.949,236.543h13.352l-15.808,79.252h-13.352L667.949,236.543z"/>
	<path d="M698.817,236.543h13.352l-15.809,79.252H683.01L698.817,236.543z"/>
	<path d="M772.729,291.229h-45.287c0.214,9.078,5.447,13.992,16.448,13.992c6.516,0,12.497-2.137,16.449-5.875l5.554,9.292
		c-5.981,5.341-14.633,7.904-23.392,7.904c-17.196,0-28.091-9.934-28.091-25.101c0-19.332,13.778-33.324,32.897-33.324
		c15.808,0,26.275,9.399,26.275,24.993C773.584,285.995,773.264,288.772,772.729,291.229z M728.617,282.364h32.684
		c0.106-8.759-5.768-13.565-14.633-13.565C737.589,268.799,731.074,274.033,728.617,282.364z"/>
	<path d="M798.792,296.677c-0.106,0.854-0.214,1.709-0.214,2.456c0,3.952,2.029,6.409,6.729,6.409c2.563,0,5.233-0.748,7.477-2.243
		l2.35,9.826c-4.059,2.563-9.079,3.418-13.778,3.418c-9.72,0-16.342-5.661-16.342-15.273c0-1.389,0.106-2.884,0.427-4.486
		l5.447-26.916h-9.292l2.136-10.681h9.293l2.563-13.031h13.351l-2.67,13.031h15.381l-2.137,10.681h-15.38L798.792,296.677z"/>
</g>
</svg>
